# xmcd
#
# Track frame offsets:
#	150
#	6390
#	23885
#	42228
#	60346
#	77155
#	96789
#	118531
#	137078
#	156365
#	178845
#	197874
#	211380
#	225977
#	243801
#	265232
#	285038
#	304376
#	325085
#	338117
#
# Disc length: 4737 seconds
# Revision: 0
# Processed by: cddbd v1.5.2PL0 Copyright (c) Steve Scherf et al.
# Submitted via: dBpowerAMP V12.0
#
DISCID=0f127f14
DTITLE=Charles "Big Daddy" Stallings - Call Me Big Daddy
DYEAR=2012
DGENRE=Soul
TTITLE0=Intro 
TTITLE1=Call Me Big Daddy 
TTITLE2=Lost And Found 
TTITLE3=Boody Pop And Lock 
TTITLE4=Boody Pop And Lock #2 
TTITLE5=Million Dollars 
TTITLE6=Levine Boogie 
TTITLE7=Beaulah Mae 
TTITLE8=James #2 
TTITLE9=Young Boy Young Man 
TTITLE10=Bunny Hop 2012
TTITLE11=Hobbsville #3 Part 1 
TTITLE12=Hobbsville #3 Part 2 (O.C.Hoffler's)
TTITLE13=Hobbsville #3 Part 3 (Bonny Lee's)
TTITLE14=Don't Cry 
TTITLE15=My New Chevy Van 
TTITLE16=City Life 
TTITLE17=E Groove 
TTITLE18=Outro 
TTITLE19=I'm G-O-N-E Gone 
EXTD=
EXTT0=
EXTT1=
EXTT2=
EXTT3=
EXTT4=
EXTT5=
EXTT6=
EXTT7=
EXTT8=
EXTT9=
EXTT10=
EXTT11=
EXTT12=
EXTT13=
EXTT14=
EXTT15=
EXTT16=
EXTT17=
EXTT18=
EXTT19=
PLAYORDER=
